<?xml version="1.0" encoding="UTF-8" standalone="no"?>
<!-- Created with Inkscape (http://www.inkscape.org/) -->

<svg
   width="33.488373"
   height="48"
   viewBox="0 0 8.8604651 12.7"
   version="1.1"
   id="svg2799"
   inkscape:version="1.2.2 (732a01da63, 2022-12-09)"
   sodipodi:docname="water-element.svg"
   xmlns:inkscape="http://www.inkscape.org/namespaces/inkscape"
   xmlns:sodipodi="http://sodipodi.sourceforge.net/DTD/sodipodi-0.dtd"
   xmlns="http://www.w3.org/2000/svg"
   xmlns:svg="http://www.w3.org/2000/svg">
  <sodipodi:namedview
     id="namedview2801"
     pagecolor="#ffffff"
     bordercolor="#000000"
     borderopacity="0.25"
     inkscape:showpageshadow="2"
     inkscape:pageopacity="0.0"
     inkscape:pagecheckerboard="0"
     inkscape:deskcolor="#d1d1d1"
     inkscape:document-units="mm"
     showgrid="false"
     inkscape:zoom="1.4912879"
     inkscape:cx="-91.196342"
     inkscape:cy="-61.021082"
     inkscape:window-width="1920"
     inkscape:window-height="1017"
     inkscape:window-x="-8"
     inkscape:window-y="-8"
     inkscape:window-maximized="1"
     inkscape:current-layer="layer1" />
  <defs
     id="defs2796" />
  <g
     inkscape:label="Layer 1"
     inkscape:groupmode="layer"
     id="layer1">
    <path
       style="display:inline;fill:#3287c6;fill-opacity:1;fill-rule:evenodd;stroke:#1c45db;stroke-width:0.928972;stroke-linejoin:bevel;stroke-dasharray:none;stroke-opacity:1;paint-order:markers fill stroke"
       d="m 4.4797679,0.97382333 -0.12168,0.26881937 -0.0465,0.1396897 -0.0652,0.1966995 -0.10241,0.2537394 -0.0431,0.1885596 -0.0989,0.2863293 -0.0768,0.2118395 -0.12455,0.2909794 -0.15713,0.2921593 -0.19438,0.2991293 -0.0687,0.1408296 -0.0559,0.1023998 -0.0745,0.1117797 -0.0838,0.1303697 -0.0838,0.1582997 -0.0931,0.1396696 -0.11173,0.1769396 -0.10969,0.1582597 -0.11111,0.1588296 -0.25267,0.3357892 -0.20411,0.2987793 -0.10924,0.1820196 -0.14899,0.2700394 -0.18157,0.2700393 -0.1909,0.2909894 -0.0652,0.1186797 -0.1094,0.1699096 -0.14665,0.2397794 -0.12339,0.2886694 -0.1094,0.398069 -0.0302999,0.430649 0.0139,0.5796387 0.0674999,0.405079 0.0605,0.3282093 0.1583,0.4446289 0.46791,0.7402881 0.13269,0.13043 0.10241,0.11405 0.18857,0.16761 0.16993,0.127969 0.15364,0.10709 0.11639,0.0722 0.13967,0.0699 0.11873,0.0513 0.10708,0.0442 0.13501,0.0465 0.16761,0.0535 0.20486,0.0513 0.13734,0.0185 0.14665,0.0232 0.19322,0.0419 0.2165,0.021 0.27702,0.009 0.23977,0.0101 0.17459,-0.009 0.17459,0.0162 0.22814,-0.0101 0.1839,-0.0101 0.27469,-0.079 0.27004,-0.11405 0.27003,-0.151309 0.32591,-0.20486 0.27935,-0.246759 0.38876,-0.44229 0.11639,-0.181599 0.12572,-0.2350996 0.1094,-0.2677094 0.12105,-0.3305692 0.021,-0.1256497 0.0512,-0.2258095 0.0279,-0.2676994 0.0326,-0.3142792 -0.007,-0.4213491 -0.0256,-0.421339 -0.0163,-0.3701291 -0.0605,-0.3678192 -0.0815,-0.3258992 -0.0908,-0.2956493 -0.0722,-0.2048495 -0.0326,-0.079 -0.0279,-0.07 -0.0256,-0.0722 -0.0512,-0.1233297 -0.11872,-0.2770294 -0.0326,-0.0606 -0.0559,-0.1373897 -0.0628,-0.1582897 -0.0885,-0.2118295 -0.11173,-0.2467594 -0.16528,-0.3258892 -0.26305,-0.4120391 -0.38876,-0.6541484 -0.33754,-0.5167788 -0.29099,-0.4004091 -0.0694,-0.1106597 -0.11769,-0.1843496 -0.0477,-0.0733 -0.0872,-0.1143898 -0.0741,-0.0988 -0.14568,-0.2041095 -0.1144,-0.1465096 -0.10124,-0.1407297 -0.0856,-0.0914 -0.0576,-0.0659 -0.0502,-0.0462 z"
       id="path71033" />
  </g>
</svg>
